<svg width="190" height="90" viewBox="0 0 274 131" xmlns="http://www.w3.org/2000/svg" xmlns:xlink="http://www.w3.org/1999/xlink"><defs><path id="path-1" d="M0 .676h273.131V130H.001z"/><path id="path-3" d="M0 130.324h273.131V1H0z"/></defs><g id="logo/parchment-logo" stroke="none" stroke-width="1" fill="none" fill-rule="evenodd"><g id="Group-46" transform="translate(0 -8)"><g id="Group-3" transform="translate(0 .324)"><mask id="mask-2" fill="#fff"><use xlink:href="#path-1"/></mask><path d="M273.128 8.187V3.68S253.983 2.553 252.056.95c-1.928-1.603-29.334 4.32-31.896 4.983-2.562.662-56.157-2.253-56.157-2.253S149.963.3 141.03.863c-8.935.564-28.079 3.944-43.395 3.944-15.315 0-33.822 0-44.67-2.254C42.115.3 0 8.187 0 8.187v114.302h.004v4.506s19.144 1.128 21.071 2.73c1.928 1.605 29.334-4.322 31.896-4.983 2.562-.662 56.158 2.253 56.158 2.253s14.04 3.38 22.973 2.817c8.935-.563 28.08-3.943 43.396-3.943 15.314 0 33.821 0 44.67 2.254 10.848 2.252 52.963-5.634 52.963-5.634V8.186h-.003z" id="Fill-1" fill="#FEF0E1" mask="url(#mask-2)"/></g><path d="M198.04 77.44c.676 1.465 1.167 2.997 1.3 4.61.455 5.48-4.803 12.711.248 17.346a9.183 9.183 0 01-.125-1.243c-.029-.928.084-1.828.235-2.738.39-2.345.952-4.66 1.233-7.027.13-1.125.215-2.284.115-3.42a15.802 15.802 0 00-.247-1.776c-.065-.319-.097-.649-.174-.963-.078-.33-.168-.654-.267-.978-.01-.027.032-.048.044-.017.21.472.4.956.588 1.436.164.413.236.89.321 1.324.161.854.26 1.751.27 2.621.024 2.322-.442 4.601-.838 6.878-.204 1.188-.432 2.403-.493 3.61-.03.6-.022 1.202.07 1.797.021.125.046.245.073.366.858-1.282 1.933-2.378 2.571-3.818 2.562-5.765.947-14.745-4.924-18.008" id="Fill-4" fill="#9BCC65"/><path d="M247.657 99.77c-.372-.95-.503-1.594-1.173-2.34-.996-1.118-2.013-2.073-2.442-2.977-.37-.803-.588-1.888-.429-2.234.058-.111.216-.555.588-.587-.82-.49-1.209-1.165-1.227-2.124 0-.581.216-1.248.434-1.434.177-.153.344-.165.576-.165-.588-1.61-.82-2.649-.633-4.357.21-1.965.478-3.35 1.49-4.837.462-.68.811-.999 1.485-1.462.35-.24 1.28-.4 1.17.51-.147 1.297-.649 1.945-.85 3.236-.193 1.267-.582 3.034-.162 3.27.345.197.933-.062 1.276.316.296.319-.207 1.23-.475 2-.627 1.822-1.199 4.364-.908 4.547.3.108.645 0 .938.021.416.04.248.716.181 1.066-.232 1.202-.388 1.79-.342 2.948.034.983.081 1.555.4 2.478a6.37 6.37 0 00.846 1.702s-.395.424-.743.424" id="Fill-6" fill="#9BCC65"/><path d="M213.05 99.6c1.033-1.806 1.432-2.498 1.633-4.559.08-.804-1.814-2.672-1.45-2.859.458-.23 1.142.497 1.754 1.072.145-.948.222-1.583-.126-2.664-.371-1.149-1.43-1.71-2.08-2.955-.303-.589-.559-.954-.684-1.542-.075-.336-.09-.686.206-.85.471-.262 1.18 1.171 1.655 2.027.38.683.875 1.507 1.326 2.067.252.096.308-.395.317-.697.052-1.085.225-1.524.112-2.027-.304-1.298-1.142-2.319-1.942-3.713-.418-.726-1.252-2.682-.612-2.682.188 0 .874 1.174 1.605 2.324.495.793.822 1.336 1.4 2.17.268-.8.348-1.412.357-2.567 0-1.049 0-1.39-.123-2.27-.157-1.067-.499-2.759.054-2.77.781-.012 1.469 1.662 1.315 4.443-.114 2.062-.25 2.901-.755 4.995-.26 1.063-.507 2.097-.56 3.214.72-.796 1.502-1.415 2.056-2.61.337-.723.368-1.345.767-1.75.21-.21.975-.229.844.586-.153 1.011-.38 1.442-.844 2.263-.727 1.267-2.394 2.177-2.61 2.685-.308.735-.492 1.145-.69 1.912-.246.93-.178 1.588-.365 2.444.66-.537 1.294-1.193 1.814-1.54 1.028-.69 2.856-1.716 2.897-.996.02.457-1.144.918-2.696 2.223-.762.632-1.412.973-1.994 1.564-.383.382-1.02 1.838-1.638 3.04 0 0-.647.334-.944.021" id="Fill-8" fill="#9BCC65"/><path d="M60.227 99.742c.454-.85.697-1.612.724-2.307-1.504-.705-2.725-1.637-3.495-2.54-1.792-2.1-2.52-3.836-2.555-6.597 1.827 1.359 2.765 2.343 4.04 4.227.983 1.455 1.442 2.363 2.023 4.019a16.289 16.289 0 00-.183-2.767c-.35-2.438-1.413-3.6-1.916-6.01-.35-1.66-.512-2.615-.586-4.306-.07-1.536.352-2.416.16-3.933a10.049 10.049 0 00-.586-2.443c.94 1.07 1.398 1.78 1.994 3.077.326.712.468 1.137.69 1.889.537 1.807.469 2.919.684 4.798.373 3.3-.141 5.983.529 8.504 1.118-1.544.42-4.285.938-6.152.397-1.422.853-2.08 1.182-3.476.31-1.315.422-2.08.497-3.433.334 1.692.464 2.662.556 4.386.1 1.684.258 2.67-.051 4.333-.22 1.189-.251 1.789-.942 2.963-.645 1.086-1.594 1.222-1.85 3.016-.052.36-.105.556-.183.903a14.578 14.578 0 01-.56 1.867s-.814.2-1.11-.018" id="Fill-10" fill="#9BCC65"/><path d="M46.019 99.929s-1.526-.766-1.867-2.628c-1.05-.353-3.017-.51-4.15-4.79.377.129.521.189.802.26-.328-.667-.782-1.917-.828-3.78.947.807 1.54.858 1.54.858-1.113-2.838.2-7.333.2-7.333l.762.647c.291-1.155.538-1.807 1.09-2.868.732-1.418 1.285-2.175 2.41-3.295 0 0-.61 4.283.425 6.607.144-.07.288-.143.773-.6.475.566.872 3.725.279 5.943.323-.083.528-.27 1.044-.534.024 1.58-.41 3.744-.933 4.6.306-.106.531-.267 1.054-.717-.16 5.31-3.278 4.043-3.247 5.197 0 0 .187.988 1.372 1.86-.192.456-.726.573-.726.573" id="Fill-12" fill="#9BCC65"/><path d="M230.371 99.636c-1.217-1.295-1.25-2.247-1.4-3.657-2.268.846-2.799-2.42-2.449-3.889.66-2.774 2.985-3.59 3.478-6.309.461-2.513-1.69-3.325-1.3-5.256.3-1.453.682-1.766 2.887-3.323-.959 2.52-1.148 2.35.96 5.095.353.457.96 1.284.62 1.873 1.463 1.09 1.07 2.032.555 3.05 1.547.611 1.708 2.934.39 4.29.563 1.01.706 1.676-.452 2.836.53 1.893-1.69 3.69-3.793 1.846-.037 1.296.276 2.186 1.188 2.798-.223.537-.684.646-.684.646" id="Fill-14" fill="#9BCC65"/><path d="M28.62 85.751c-.208.333-.321.519-.523.856l-.068-.39c.18-.245.293-.398.478-.638-.111-.4-.307-1.477.46-2.33.964-1.067 3.078-1.38 3.078-1.38s-.093 2.134-1.055 3.202c-.844.937-2.078.744-2.37.68" id="Fill-16" fill="#9BCC65"/><path d="M29.268 89.4c-.2.37-.322.592-.527.958l-.091-.38c.187-.27.29-.446.475-.717-.05-.341-.151-1.53.796-2.307 1.113-.914 3.25-.906 3.25-.906s-.413 2.097-1.523 3.01c-.913.748-2.012.468-2.38.343" id="Fill-18" fill="#9BCC65"/><path d="M29.777 93.635c-.16.243-.293.437-.462.674l-.04-.39c.147-.169.227-.28.37-.45-.052-.374-.12-1.52.799-2.277 1.113-.91 3.25-.904 3.25-.904s-.413 2.097-1.525 3.008c-.925.758-2.04.461-2.391.34" id="Fill-20" fill="#9BCC65"/><path d="M28.514 94.655a91.902 91.902 0 00-.943-.933c-.364.115-1.475.377-2.375-.395-1.091-.936-1.457-3.041-1.457-3.041s2.137.038 3.228.976c.945.808.799 2.023.742 2.338.262.217.525.436.787.65-.06-1.056-.205-2.145-.362-3.248a172.45 172.45 0 01-1.141-1.418c-.093.02-1.51.299-2.395-.768-.917-1.112-.918-3.247-.918-3.247s2.097.402 3.015 1.513c.73.88.492 1.94.363 2.342.332.363.667.723 1.004 1.084-.163-1.121-.331-2.254-.434-3.382a33.151 33.151 0 01-1.114-1.483c-.344-.028-1.522-.2-2.064-1.291-.64-1.288-.156-3.37-.156-3.37s1.95.87 2.592 2.158c.54 1.086-.025 2.124-.215 2.423.296.365.603.723.917 1.073-.12-1.605-.083-3.205.31-4.752-.152-.25-.744-1.354-.132-2.462.696-1.26 2.685-2.042 2.685-2.042s.392 2.098-.305 3.356c-.57 1.035-1.696 1.182-2.082 1.199-.348 1.495-.352 2.997-.206 4.499l.054.478c.132 1.11.339 2.217.547 3.318l.088.473c.216 1.155.42 2.304.525 3.436l.036.457c.106 1.586-.008 3.14-.582 4.649l-.89.303c.749-1.503.94-3.155.878-4.893" id="Fill-22" fill="#9BCC65"/><path d="M71.334 99.397c2.277-3.387 2.343-4.728 2.343-4.728-1.457-1.59-2.148-2.754-2.247-4.772-.096-1.962.653-3.038 1.065-4.98.328-1.555.77-2.445.838-3.996.065-1.414 0-2.219-.875-3.559 1.82 1.126 2.576 2.727 3.322 4.485.794 1.862 1.101 2.924 1.291 4.853.231 2.376.286 4.084-.625 6.087-.994 2.192-1.737 2.008-1.89 2.448-.719 2.016-.998 2.552-2.09 4.156-.674.39-1.132.005-1.132.005" id="Fill-24" fill="#9BCC65"/><path id="Fill-26" fill="#007F60" d="M23.407 70.922V34.98h20.735v3.226H27.247v12.646h13.465v3.226H27.247v16.844z"/><path d="M53.41 53.668c9.216 1.28 14.336-2.56 14.336-8.192 0-5.325-4.608-8.755-14.336-7.168v15.36zm10.598 2.355l10.65 14.899h-4.813l-9.728-13.875c-2.048.256-4.3.41-6.707.051v13.824h-3.84V35.185c15.155-2.56 22.118 2.151 22.118 10.342 0 4.966-3.123 8.806-7.68 10.496z" id="Fill-28" fill="#007F60"/><path d="M95.037 68.26c7.936 0 14.54-6.298 14.54-15.258 0-8.96-6.604-15.36-14.54-15.36-7.987 0-14.489 6.4-14.489 15.36 0 8.96 6.502 15.258 14.49 15.258m0-33.996c10.65 0 18.687 8.14 18.687 18.738 0 10.496-8.038 18.637-18.688 18.637-10.752 0-18.636-8.141-18.636-18.637 0-10.597 7.884-18.738 18.636-18.738" id="Fill-30" fill="#007F60"/><path id="Fill-32" fill="#007F60" d="M147.98 34.98v36.044l-.92.358-23.807-28.005v27.545h-3.738V34.878l.819-.41 23.859 28.16V34.98z"/><path id="Fill-34" fill="#007F60" d="M178.909 38.206h-11.213v32.716h-3.84V38.206h-11.161V34.98h26.214z"/><mask id="mask-4" fill="#fff"><use xlink:href="#path-3"/></mask><path id="Fill-36" fill="#007F60" mask="url(#mask-4)" d="M184.184 70.922h3.84V34.98h-3.84z"/><path id="Fill-38" fill="#007F60" mask="url(#mask-4)" d="M218.386 67.696v3.225H196.73v-35.94h20.89v3.225h-17.05v12.645h14.08v3.226h-14.08v13.62z"/><path d="M228.577 53.668c9.216 1.28 14.336-2.56 14.336-8.192 0-5.325-4.608-8.755-14.336-7.168v15.36zm10.598 2.355l10.65 14.899h-4.812l-9.729-13.875c-2.048.256-4.3.41-6.707.051v13.824h-3.84V35.185c15.155-2.56 22.12 2.151 22.12 10.342 0 4.966-3.125 8.806-7.682 10.496z" id="Fill-39" fill="#007F60" mask="url(#mask-4)"/><path d="M106.16 97.218c-1.626 1.592-4.268 3.658-9.38 3.658-7.012 0-12.363-5.385-12.363-12.395 0-7.45 5.927-12.328 12.531-12.328 4.707 0 7.451 2.066 9.043 3.488l-2.134 2.54c-1.355-1.253-3.76-2.879-6.842-2.879-4.91 0-8.737 4.031-8.737 9.18 0 4.977 3.556 9.21 8.772 9.21 2.81 0 5.52-1.422 6.943-2.81l2.167 2.336z" id="Fill-40" fill="#007F60" mask="url(#mask-4)"/><path d="M119.773 97.693c4.639 0 8.67-3.657 8.67-9.144s-4.031-9.246-8.67-9.246c-4.674 0-8.636 3.759-8.636 9.246s3.962 9.144 8.636 9.144m0-21.54c7.213 0 12.496 5.487 12.496 12.396 0 6.875-5.283 12.328-12.496 12.328-7.214 0-12.463-5.453-12.463-12.328 0-6.91 5.249-12.395 12.463-12.395" id="Fill-41" fill="#007F60" mask="url(#mask-4)"/><path id="Fill-42" fill="#007F60" mask="url(#mask-4)" d="M134.57 90.251v-3.116l8.975-1.32v3.115z"/><path d="M158.275 97.693c4.64 0 8.67-3.657 8.67-9.144s-4.03-9.246-8.67-9.246c-4.674 0-8.636 3.759-8.636 9.246s3.962 9.144 8.636 9.144m0-21.54c7.213 0 12.497 5.487 12.497 12.396 0 6.875-5.284 12.328-12.497 12.328s-12.463-5.453-12.463-12.328c0-6.91 5.25-12.395 12.463-12.395" id="Fill-43" fill="#007F60" mask="url(#mask-4)"/><path d="M177.984 89.395c5.757.407 8.298-1.658 8.298-5.08 0-3.115-2.27-5.385-8.298-4.605v9.686zm0 3.15v7.858h-3.556V76.797c10.702-1.897 15.51 1.829 15.51 7.553 0 5.418-4.233 8.67-11.954 8.195z" id="Fill-44" fill="#007F60" mask="url(#mask-4)"/><path d="M254.668 40.056h.855c.723 0 1.386-.036 1.386-.868 0-.698-.602-.807-1.157-.807h-1.084v1.675zm-.82-2.338h2.036c1.254 0 1.844.494 1.844 1.507 0 .95-.602 1.349-1.386 1.433l1.507 2.326h-.88l-1.434-2.265h-.867v2.265h-.82v-5.266zm1.759 6.483c2.085 0 3.7-1.663 3.7-3.868 0-2.157-1.615-3.82-3.7-3.82-2.108 0-3.723 1.663-3.723 3.82 0 2.205 1.615 3.868 3.723 3.868zm0-8.35c2.458 0 4.519 1.94 4.519 4.482 0 2.59-2.061 4.53-4.52 4.53-2.47 0-4.541-1.94-4.541-4.53 0-2.542 2.072-4.482 4.542-4.482z" id="Fill-45" fill="#007F60" mask="url(#mask-4)"/></g></g></svg>