<svg class="olark-svg-clip-path" role="img" aria-hidden="true" focusable="false" aria-labelledby="olark-chat-button-clip-path-title"><title id="olark-chat-button-clip-path-title">Olark launch button clip path</title><defs><clipPath id="olark-chat-button-clip-path" clipPathUnits="objectBoundingBox"><path d="M0.11,0.09 C0.014,0.174,-0.003,0.398,0,0.499 C-0.003,0.618,0.015,0.849,0.125,0.919 C0.235,0.989,0.413,0.997,0.504,0.999 C0.604,0.999,0.719,0.999,0.869,0.924 C0.974,0.849,0.994,0.704,0.999,0.499 C1,0.295,0.984,0.155,0.879,0.075 C0.796,0.011,0.593,-0.003,0.504,0 C0.413,-0.005,0.206,0.006,0.11,0.09"></path></clipPath><clipPath id="olark-chat-button-text-clip-path" clipPathUnits="objectBoundingBox"><path d="M0.041,0.09 C0.005,0.174,-0.001,0.398,0,0.499 C-0.001,0.618,0.006,0.849,0.047,0.919 C0.088,0.989,0.467,0.997,0.502,0.999 C0.539,0.999,0.895,0.999,0.951,0.924 C0.99,0.849,0.998,0.704,1,0.499 C1,0.295,0.994,0.155,0.955,0.075 C0.923,0.011,0.535,-0.003,0.502,0 C0.467,-0.005,0.077,0.006,0.041,0.09"></path></clipPath></defs></svg>